<svg width="77" height="28" viewBox="0 0 77 28" fill="none" xmlns="http://www.w3.org/2000/svg">
<g clip-path="url(#clip0_37330_2602)">
<path d="M17.5723 6.25738C16.8777 4.59039 15.2962 3.6073 12.1119 4.93234C13.3087 5.24223 14.3986 5.69104 15.3817 6.22533C16.0015 6.05435 16.7068 6.0223 17.5723 6.25738Z" fill="#58F287"/>
<path d="M3.77625 8.35234C4.02203 7.68982 4.51357 6.87769 5.49667 6.40752C5.79588 6.2686 6.13782 6.16174 6.5332 6.09761H6.74691C6.81103 6.09761 6.87514 6.09761 6.93927 6.07624C7.21709 6.05487 7.5163 6.05487 7.83688 6.07624C7.92236 6.07624 7.99715 6.07624 8.08265 6.09761C8.29636 6.119 8.51007 6.16174 8.74517 6.20449C8.78791 6.20449 8.84135 6.22586 8.88409 6.23653C8.91614 6.23653 8.95888 6.23653 8.99094 6.2579C9.0978 6.27928 9.21535 6.31134 9.3329 6.34339C9.37564 6.34339 9.40769 6.36478 9.45043 6.37545C9.49319 6.37545 9.52523 6.39682 9.56798 6.40752C9.64278 6.42889 9.7069 6.45026 9.7817 6.47163C9.84582 6.493 9.89923 6.50368 9.96336 6.52505C10.1236 6.57849 10.2733 6.63192 10.4442 6.68534C10.5083 6.70671 10.5724 6.72808 10.6366 6.76015C10.7007 6.78152 10.7755 6.81358 10.8503 6.83495C13.3615 7.81805 16.7809 11.0131 17.6358 11.8466C17.6358 11.8466 17.6358 11.8252 17.6465 11.8039C17.7747 11.3444 17.8923 10.7673 17.9564 10.1476C18.0312 9.44229 18.0525 8.6836 17.9671 7.94628C16.4603 6.74945 14.5048 5.54196 12.1112 4.93287H12.0792C12.0364 4.93287 11.983 4.91149 11.9402 4.90081C11.8441 4.87943 11.7479 4.85806 11.6517 4.83669C10.8823 4.66572 10.0809 4.55886 9.23672 4.5268C5.11198 4.38789 3.81899 6.82426 3.55185 9.24995C3.57322 9.07897 3.63733 8.74771 3.77625 8.36302V8.35234Z" fill="#58F287"/>
<path d="M4.53569 19.7648C3.96934 19.3374 3.3282 18.6215 3.17859 17.5636C3.13585 17.243 3.13585 16.8904 3.19997 16.5057C3.19997 16.4843 3.19997 16.4522 3.21065 16.4309C3.21065 16.3988 3.22134 16.3561 3.23202 16.324V16.3026C3.24271 16.2385 3.2534 16.1851 3.27477 16.121C3.33888 15.8538 3.43506 15.576 3.56329 15.2875C3.59534 15.2127 3.6274 15.1379 3.65945 15.0631C3.74495 14.8707 3.85181 14.6784 3.96936 14.486C3.99073 14.4433 4.0121 14.4006 4.04415 14.3685C4.06552 14.3364 4.07621 14.3044 4.09758 14.2723C4.16169 14.1762 4.21513 14.08 4.27924 13.9838C4.30061 13.9518 4.32198 13.9197 4.34336 13.8876C4.36473 13.8556 4.3861 13.8235 4.40747 13.7915C4.45021 13.7273 4.49295 13.6739 4.53569 13.6098C4.56776 13.5564 4.6105 13.5136 4.64255 13.4602C4.73873 13.332 4.84558 13.2037 4.95245 13.0648C4.99519 13.0114 5.03794 12.958 5.08068 12.9045C5.12342 12.8511 5.17686 12.787 5.2196 12.7336C6.96139 10.7033 11.1182 8.52333 12.1975 7.96767C12.1868 7.96767 12.1761 7.96767 12.1654 7.9463C11.7593 7.67915 11.2357 7.40132 10.648 7.14486C9.98548 6.85633 9.24816 6.61056 8.51084 6.45028C6.8759 7.47612 5.10205 8.9294 3.76632 10.9597C3.76632 10.9597 3.76632 10.9811 3.75563 10.9811C3.73426 11.0238 3.70219 11.0559 3.68082 11.0986C3.6274 11.1841 3.57397 11.2589 3.52054 11.3444C3.12517 12.0069 2.76185 12.7229 2.47333 13.5029C1.0628 17.2964 3.03968 19.2413 5.31576 20.2457C5.15548 20.1709 4.84558 20.0106 4.52502 19.7648H4.53569Z" fill="#58F287"/>
<path d="M15.8744 22.5758C15.276 22.9712 14.3891 23.3558 13.3098 23.1636C12.9892 23.1102 12.6366 22.9926 12.2839 22.8216C12.2626 22.8216 12.2412 22.8002 12.2198 22.7895C12.1878 22.7683 12.1557 22.7574 12.113 22.7362H12.0916C12.0382 22.7041 11.9848 22.672 11.9313 22.64C11.6962 22.4903 11.4505 22.3194 11.2047 22.1163C11.1406 22.0629 11.0764 22.0095 11.023 21.956C10.8627 21.8171 10.7131 21.6568 10.5529 21.4966C10.5208 21.4645 10.4887 21.4324 10.4567 21.3897C10.4353 21.3684 10.4033 21.3363 10.3819 21.3042C10.3071 21.2187 10.2323 21.1333 10.1575 21.0371C10.1361 21.005 10.104 20.9729 10.0827 20.9408C10.0613 20.9089 10.0292 20.8768 10.0079 20.8447C9.96512 20.7913 9.91169 20.7271 9.86895 20.6631C9.8369 20.6097 9.79416 20.567 9.76209 20.5134C9.66592 20.3852 9.56975 20.2463 9.47358 20.1074C9.43083 20.054 9.39877 19.9899 9.35603 19.9364C9.31329 19.8723 9.28124 19.8189 9.23848 19.7548C7.80658 17.5108 6.9624 12.9693 6.75937 11.8045C6.74869 11.8045 6.738 11.8259 6.72732 11.8259C6.34263 12.1251 5.9045 12.5205 5.47706 12.9906C4.99621 13.5142 4.52603 14.1233 4.14133 14.7645C4.63288 16.5918 5.49845 18.6969 7.06925 20.567C7.06925 20.567 7.07995 20.567 7.09062 20.5883C7.12269 20.6203 7.15475 20.6631 7.17613 20.6952C7.24024 20.7699 7.30435 20.8447 7.36846 20.9195C7.88138 21.4966 8.46911 22.0415 9.14232 22.5545C12.3908 25.0336 14.902 23.8047 16.5797 21.9987C16.4514 22.127 16.2057 22.3621 15.8637 22.5865L15.8744 22.5758Z" fill="#58F287"/>
<path d="M14.645 4.12073C15.3609 4.1421 16.312 4.34513 17.0707 5.1252C17.2951 5.36029 17.5088 5.64881 17.6904 5.99076L17.7225 6.05487C17.7439 6.08692 17.7545 6.11898 17.7759 6.16173V6.1831C17.7973 6.23652 17.8294 6.28995 17.8507 6.35406C17.9576 6.61053 18.0431 6.88835 18.1179 7.19826C18.1393 7.27305 18.1499 7.35853 18.1714 7.43334C18.2141 7.63637 18.246 7.85008 18.2675 8.07448C18.2675 8.11724 18.2781 8.17066 18.2781 8.2134V8.32026C18.2781 8.42713 18.2996 8.54466 18.2996 8.66221V9.30337C18.2996 9.46364 18.2996 9.62394 18.2888 9.79492C18.2888 9.85903 18.2888 9.93382 18.2781 9.99795C18.2781 10.0727 18.2781 10.1475 18.2675 10.2117C18.0858 12.8511 16.0341 17.0079 15.4891 18.0658H15.5319C16.0234 18.0444 16.6112 17.9696 17.2416 17.8414C17.9469 17.6918 18.6949 17.478 19.3894 17.1681C20.0947 15.405 20.661 13.2037 20.5115 10.7887V10.6177C20.5115 10.5215 20.5009 10.4254 20.4901 10.3292C20.4154 9.57052 20.2764 8.77976 20.0414 7.989C18.898 4.11004 16.141 3.67192 13.6832 4.16347C13.8649 4.13142 14.1962 4.08867 14.6129 4.09935L14.645 4.12073Z" fill="#58F287"/>
<path d="M12.229 22.5326C13.7892 23.4835 15.7447 23.0776 17.2514 20.748C16.0973 21.1861 14.9432 21.4426 13.8319 21.5816C13.4365 22.073 13.0732 22.2227 12.229 22.5326Z" fill="#58F287"/>
<path d="M20.95 16.2922C22.3605 15.1381 22.5315 13.033 20.8218 11.0561C20.8965 12.2636 20.7897 13.4177 20.576 14.4863C20.9286 15.0099 20.9073 15.4159 20.95 16.2922Z" fill="#58F287"/>
<path d="M6.47934 6.34286C4.67344 6.64207 3.47661 8.37318 3.96816 10.9378C4.51314 9.85851 5.17566 8.90747 5.90231 8.08467C5.85956 7.4542 6.07327 7.11225 6.47934 6.34286Z" fill="#58F287"/>
<path d="M22.1275 12.916C22.3305 13.5892 22.4267 14.5403 21.903 15.4806C21.7428 15.7692 21.5397 16.047 21.2512 16.3248L21.1978 16.3783C21.1657 16.3996 21.1444 16.4317 21.1123 16.4531H21.0909C21.0481 16.4958 20.9947 16.5385 20.952 16.5706C20.7383 16.7416 20.4925 16.9126 20.2147 17.0835C20.1399 17.1263 20.0757 17.169 20.001 17.2011C19.8192 17.2972 19.6162 17.4041 19.4025 17.4896C19.3597 17.511 19.317 17.5323 19.2742 17.543C19.2423 17.543 19.2102 17.5751 19.1675 17.5858C19.0605 17.6285 18.9538 17.6712 18.8468 17.714C18.8149 17.714 18.7721 17.7461 18.7294 17.7567C18.6865 17.7567 18.6546 17.7888 18.6118 17.7995C18.537 17.8208 18.4728 17.8529 18.3981 17.8743C18.3339 17.8957 18.2805 17.917 18.2163 17.9277C18.0561 17.9811 17.8958 18.0239 17.7355 18.0666C17.6714 18.088 17.6073 18.0987 17.5325 18.1201C17.4577 18.1414 17.3936 18.1521 17.3188 18.1735C14.6901 18.8146 10.0097 18.1948 8.81285 18.0132C8.81285 18.0132 8.81285 18.0346 8.82353 18.0559C8.99452 18.5047 9.25097 19.0283 9.57155 19.5733C9.93487 20.1824 10.3837 20.8129 10.8859 21.3579C12.82 21.4647 15.1389 21.3152 17.447 20.4282H17.4791C17.5218 20.4068 17.5646 20.3962 17.6073 20.3747C17.7035 20.3428 17.789 20.3 17.8851 20.2573C18.601 19.958 19.3278 19.584 20.0223 19.1138C23.4418 16.8591 23.025 14.1449 21.7747 12.0291C21.8602 12.1787 22.0099 12.4886 22.1275 12.8733V12.916Z" fill="#58F287"/>
<path d="M17.5723 6.25738C16.8777 4.59039 15.2962 3.6073 12.1119 4.93234C13.3087 5.24223 14.3986 5.69104 15.3817 6.22533C16.0015 6.05435 16.7068 6.0223 17.5723 6.25738Z" fill="#58F287"/>
<path d="M5.06184 17.7341C4.50618 17.5311 4.02532 17.1677 3.49103 16.5373C3.09565 18.2363 4.05737 19.8606 6.92118 20.5766C5.60682 19.1446 5.26487 18.247 5.05116 17.7341H5.06184Z" fill="#58F287"/>
<path d="M7.12914 20.6094C6.97954 20.4384 6.84062 20.2675 6.7017 20.0858C6.82995 20.2675 6.96885 20.4384 7.10777 20.5987H7.12914V20.6094Z" fill="#58F287"/>
<path d="M71.4446 16.0378L65.9979 6.95099H63.2074V20.4913H65.9979V11.4176L71.4382 20.4913H74.2253V6.95099H71.4446V16.0378Z" fill="black"/>
<path d="M60.2687 8.73097C59.7753 8.16897 59.1904 7.74094 58.5041 7.44687C57.8278 7.15279 57.073 7.00249 56.2464 7.00249C55.4198 7.00249 54.6716 7.14953 53.9887 7.44687C53.3122 7.74094 52.7241 8.16897 52.2241 8.73097C51.7308 9.29297 51.3517 9.96934 51.0806 10.7666C50.8093 11.5573 50.6754 12.4559 50.6754 13.4622V14.0863C50.6754 15.0862 50.8093 15.9847 51.0806 16.782C51.3551 17.5792 51.7438 18.2556 52.2406 18.8176C52.7372 19.3731 53.3253 19.7978 54.0049 20.0919C54.6879 20.386 55.4427 20.5362 56.2627 20.5362C57.0828 20.5362 57.8441 20.3892 58.5206 20.0919C59.2035 19.7978 59.7916 19.3698 60.2849 18.8176C60.7783 18.2556 61.1574 17.5792 61.4287 16.782C61.6998 15.9847 61.8338 15.0862 61.8338 14.0863V13.4622C61.8338 12.4559 61.6966 11.5573 61.4188 10.7666C61.1475 9.96934 60.7653 9.29297 60.2687 8.73097ZM59.1087 14.083C59.1087 14.7757 59.0466 15.39 58.9191 15.9292C58.7917 16.4585 58.6088 16.9094 58.3703 17.2753C58.1317 17.638 57.8345 17.9125 57.4782 18.0987C57.1254 18.285 56.7201 18.3797 56.2627 18.3797C55.8053 18.3797 55.4033 18.285 55.0472 18.0987C54.6943 17.9125 54.3938 17.638 54.1487 17.2753C53.9037 16.9061 53.7174 16.4585 53.5899 15.9292C53.4625 15.3933 53.4004 14.779 53.4004 14.083V13.4394C53.4004 12.7401 53.4625 12.1259 53.5899 11.5933C53.7174 11.0639 53.9004 10.6163 54.139 10.2536C54.384 9.89092 54.6812 9.61971 55.0309 9.44002C55.3838 9.25376 55.789 9.159 56.2464 9.159C56.7038 9.159 57.1058 9.25376 57.4619 9.44002C57.8148 9.61971 58.1154 9.89092 58.3604 10.2536C58.6054 10.6163 58.7917 11.0607 58.9191 11.5933C59.0466 12.1259 59.1087 12.7401 59.1087 13.4394V14.083Z" fill="black"/>
<path d="M42.9315 14.587H48.2868V12.4665H42.9315V9.13693H49.2181V6.95099H42.9315H42.0199H40.141V20.4913H42.0199H42.9315H49.2278V18.3152H42.9315V14.587Z" fill="black"/>
<path d="M33.0149 6.95099H31.1264L26.0945 20.4913H29.0614L29.9991 17.6356H34.8643L35.802 20.4913H38.7787L33.7207 6.95099H33.0149ZM30.7146 15.4529L32.4269 10.2315L34.1454 15.4529H30.7146Z" fill="black"/>
</g>
<defs>
<clipPath id="clip0_37330_2602">
<rect width="72.5" height="20" fill="white" transform="translate(2 4)"/>
</clipPath>
</defs>
</svg>
