<svg width="24" height="24" viewBox="0 0 24 24" fill="none" xmlns="http://www.w3.org/2000/svg">
<g clip-path="url(#clip0_38186_478)">
<path d="M16.9886 4.50518C16.3163 2.89154 14.7854 1.9399 11.7029 3.22255C12.8614 3.52252 13.9165 3.95697 14.8681 4.47416C15.4681 4.30865 16.1508 4.27763 16.9886 4.50518Z" fill="#58F287"/>
<path d="M3.63568 6.53283C3.87359 5.89151 4.34941 5.10537 5.30105 4.65024C5.59068 4.51577 5.92167 4.41233 6.30441 4.35026H6.51128C6.57334 4.35026 6.6354 4.35026 6.69748 4.32957C6.96641 4.30888 7.25605 4.30888 7.56637 4.32957C7.64912 4.32957 7.72151 4.32957 7.80428 4.35026C8.01115 4.37096 8.21802 4.41233 8.44559 4.45371C8.48697 4.45371 8.53869 4.47439 8.58007 4.48473C8.61109 4.48473 8.65246 4.48473 8.6835 4.50542C8.78694 4.5261 8.90073 4.55714 9.01451 4.58817C9.05589 4.58817 9.08691 4.60887 9.12828 4.6192C9.16967 4.6192 9.2007 4.63989 9.24207 4.65024C9.31448 4.67093 9.37654 4.69162 9.44896 4.7123C9.51102 4.73299 9.56273 4.74333 9.62481 4.76401C9.77995 4.81574 9.92478 4.86746 10.0903 4.91917C10.1523 4.93986 10.2144 4.96055 10.2765 4.99159C10.3385 5.01227 10.4109 5.04331 10.4833 5.064C12.9142 6.01564 16.2242 9.10846 17.0517 9.91529C17.0517 9.91529 17.0517 9.8946 17.0621 9.87391C17.1862 9.42912 17.3 8.87055 17.362 8.27061C17.4344 7.5879 17.4551 6.85349 17.3724 6.13976C15.9139 4.98124 14.021 3.81239 11.7039 3.22278H11.6729C11.6315 3.22278 11.5798 3.20209 11.5384 3.19175C11.4453 3.17106 11.3522 3.15037 11.2591 3.12968C10.5144 2.96418 9.73858 2.86074 8.92141 2.82971C4.92866 2.69524 3.67706 5.05365 3.41846 7.40172C3.43914 7.23621 3.50121 6.91555 3.63568 6.54317V6.53283Z" fill="#58F287"/>
<path d="M4.36959 17.5799C3.82136 17.1661 3.20073 16.4731 3.05592 15.4491C3.01454 15.1388 3.01454 14.7974 3.07661 14.425C3.07661 14.4043 3.07661 14.3733 3.08695 14.3526C3.08695 14.3216 3.09729 14.2802 3.10764 14.2492V14.2285C3.11798 14.1664 3.12833 14.1147 3.14901 14.0526C3.21108 13.794 3.30417 13.5251 3.4283 13.2458C3.45933 13.1734 3.49037 13.101 3.52139 13.0286C3.60415 12.8424 3.70759 12.6562 3.82138 12.47C3.84206 12.4286 3.86275 12.3873 3.89377 12.3562C3.91446 12.3252 3.92481 12.2942 3.9455 12.2631C4.00756 12.17 4.05928 12.077 4.12135 11.9839C4.14203 11.9528 4.16272 11.9218 4.18341 11.8908C4.20409 11.8597 4.22478 11.8287 4.24547 11.7977C4.28684 11.7356 4.32822 11.6839 4.36959 11.6218C4.40063 11.5701 4.442 11.5287 4.47303 11.477C4.56613 11.3529 4.66956 11.2287 4.77301 11.0943C4.81439 11.0426 4.85576 10.9908 4.89714 10.9391C4.93851 10.8874 4.99024 10.8253 5.03161 10.7736C6.71766 8.80828 10.7414 6.69812 11.7862 6.16024C11.7758 6.16024 11.7655 6.16024 11.7551 6.13955C11.3621 5.88095 10.8552 5.61201 10.2863 5.36376C9.64499 5.08446 8.93126 4.84655 8.21753 4.69141C6.63491 5.68442 4.91782 7.09119 3.62484 9.05652C3.62484 9.05652 3.62484 9.07721 3.61449 9.07721C3.5938 9.11859 3.56276 9.14962 3.54208 9.191C3.49037 9.27375 3.43864 9.34616 3.38692 9.42891C3.0042 10.0702 2.65251 10.7633 2.37322 11.5184C1.00783 15.1905 2.92145 17.0731 5.12469 18.0454C4.96955 17.9729 4.66956 17.8178 4.35926 17.5799H4.36959Z" fill="#58F287"/>
<path d="M15.3449 20.3012C14.7657 20.6838 13.9071 21.0562 12.8624 20.8701C12.5521 20.8184 12.2107 20.7046 11.8694 20.5391C11.8487 20.5391 11.828 20.5183 11.8073 20.508C11.7763 20.4874 11.7452 20.477 11.7039 20.4563H11.6832C11.6315 20.4253 11.5797 20.3942 11.528 20.3633C11.3005 20.2184 11.0625 20.0529 10.8246 19.8563C10.7626 19.8047 10.7005 19.753 10.6488 19.7011C10.4936 19.5667 10.3488 19.4115 10.1937 19.2565C10.1626 19.2254 10.1316 19.1944 10.1006 19.153C10.0799 19.1324 10.0488 19.1013 10.0281 19.0702C9.95574 18.9875 9.88333 18.9047 9.81092 18.8117C9.79023 18.7806 9.75921 18.7495 9.73852 18.7185C9.71783 18.6876 9.6868 18.6565 9.66611 18.6254C9.62473 18.5737 9.57301 18.5116 9.53163 18.4496C9.50061 18.3979 9.45924 18.3566 9.4282 18.3047C9.3351 18.1806 9.24201 18.0462 9.14892 17.9117C9.10754 17.86 9.0765 17.7979 9.03513 17.7462C8.99375 17.6841 8.96273 17.6324 8.92134 17.5704C7.53526 15.3982 6.7181 11.002 6.52156 9.87451C6.51122 9.87451 6.50087 9.8952 6.49054 9.8952C6.11815 10.1848 5.69405 10.5676 5.28029 11.0227C4.81482 11.5295 4.35969 12.1191 3.9873 12.7398C4.46312 14.5086 5.30099 16.5463 6.82153 18.3566C6.82153 18.3566 6.83188 18.3566 6.84222 18.3772C6.87326 18.4082 6.90429 18.4496 6.92498 18.4807C6.98704 18.553 7.0491 18.6254 7.11117 18.6979C7.60767 19.2565 8.17659 19.7839 8.82826 20.2805C11.9728 22.6802 14.4036 21.4907 16.0276 19.7425C15.9035 19.8666 15.6656 20.0943 15.3346 20.3115L15.3449 20.3012Z" fill="#58F287"/>
<path d="M14.1553 2.43669C14.8484 2.45738 15.769 2.65391 16.5034 3.40902C16.7206 3.63658 16.9275 3.91587 17.1033 4.24688L17.1344 4.30894C17.155 4.33996 17.1654 4.371 17.1861 4.41237V4.43306C17.2068 4.48477 17.2378 4.5365 17.2585 4.59856C17.3619 4.84682 17.4447 5.11575 17.5171 5.41574C17.5378 5.48814 17.5481 5.57088 17.5689 5.6433C17.6102 5.83983 17.6411 6.0467 17.6619 6.26392C17.6619 6.30531 17.6722 6.35702 17.6722 6.3984V6.50183C17.6722 6.60529 17.693 6.71906 17.693 6.83284V7.45349C17.693 7.60863 17.693 7.76379 17.6825 7.92931C17.6825 7.99137 17.6825 8.06376 17.6722 8.12584C17.6722 8.19824 17.6722 8.27065 17.6619 8.33271C17.486 10.8877 15.5 14.9114 14.9725 15.9355H15.0139C15.4897 15.9148 16.0586 15.8424 16.6689 15.7183C17.3516 15.5734 18.0757 15.3666 18.7479 15.0666C19.4307 13.3598 19.9789 11.229 19.8341 8.89128V8.72578C19.8341 8.63268 19.8238 8.5396 19.8134 8.4465C19.7411 7.71208 19.6065 6.94663 19.379 6.18118C18.2722 2.42635 15.6035 2.00225 13.2244 2.47807C13.4002 2.44703 13.7209 2.40565 14.1243 2.416L14.1553 2.43669Z" fill="#58F287"/>
<path d="M11.8162 20.2592C13.3264 21.1797 15.2193 20.7867 16.6778 18.5317C15.5607 18.9558 14.4435 19.204 13.3677 19.3386C12.985 19.8143 12.6333 19.9592 11.8162 20.2592Z" fill="#58F287"/>
<path d="M20.259 14.2184C21.6244 13.1013 21.7899 11.0635 20.1349 9.1499C20.2072 10.3188 20.1038 11.4359 19.897 12.4703C20.2383 12.9772 20.2177 13.3702 20.259 14.2184Z" fill="#58F287"/>
<path d="M6.25108 4.58789C4.50296 4.87753 3.34444 6.55324 3.82026 9.03577C4.3478 7.99103 4.98912 7.07044 5.69251 6.27396C5.65114 5.66367 5.85801 5.33266 6.25108 4.58789Z" fill="#58F287"/>
<path d="M21.3983 10.9503C21.5949 11.602 21.6879 12.5226 21.181 13.4329C21.0259 13.7122 20.8294 13.9811 20.5501 14.25L20.4984 14.3018C20.4673 14.3225 20.4467 14.3535 20.4156 14.3742H20.3949C20.3535 14.4155 20.3018 14.4569 20.2604 14.488C20.0536 14.6535 19.8156 14.819 19.5468 14.9845C19.4743 15.0258 19.4122 15.0672 19.3399 15.0982C19.1639 15.1913 18.9674 15.2948 18.7605 15.3775C18.7191 15.3982 18.6778 15.4189 18.6364 15.4293C18.6055 15.4293 18.5744 15.4603 18.533 15.4706C18.4295 15.512 18.3262 15.5534 18.2226 15.5948C18.1917 15.5948 18.1504 15.6258 18.109 15.6361C18.0675 15.6361 18.0365 15.6671 17.9952 15.6775C17.9227 15.6982 17.8606 15.7292 17.7883 15.7499C17.7262 15.7706 17.6745 15.7913 17.6123 15.8016C17.4572 15.8533 17.3021 15.8947 17.1469 15.9361C17.0849 15.9568 17.0228 15.9671 16.9504 15.9878C16.878 16.0085 16.8159 16.0188 16.7435 16.0395C14.1989 16.6602 9.66827 16.0602 8.50977 15.8844C8.50977 15.8844 8.50977 15.9051 8.5201 15.9258C8.68561 16.3602 8.93386 16.867 9.24418 17.3946C9.59588 17.9842 10.0303 18.5945 10.5165 19.1221C12.3887 19.2254 14.6333 19.0807 16.8676 18.2222H16.8987C16.94 18.2014 16.9814 18.1911 17.0228 18.1703C17.1159 18.1394 17.1986 18.098 17.2917 18.0567C17.9847 17.767 18.6882 17.4049 19.3605 16.9498C22.6706 14.7672 22.2672 12.1399 21.0569 10.0918C21.1396 10.2366 21.2845 10.5366 21.3983 10.909V10.9503Z" fill="#58F287"/>
<path d="M16.9886 4.50518C16.3163 2.89154 14.7854 1.9399 11.7029 3.22255C12.8614 3.52252 13.9165 3.95697 14.8681 4.47416C15.4681 4.30865 16.1508 4.27763 16.9886 4.50518Z" fill="#58F287"/>
<path d="M4.87922 15.6141C4.34134 15.4175 3.87587 15.0658 3.35868 14.4556C2.97595 16.1002 3.9069 17.6725 6.67906 18.3656C5.40677 16.9795 5.07576 16.1106 4.86889 15.6141H4.87922Z" fill="#58F287"/>
<path d="M6.87933 18.3975C6.73452 18.232 6.60005 18.0665 6.46558 17.8906C6.58971 18.0665 6.72417 18.232 6.85865 18.3872H6.87933V18.3975Z" fill="#58F287"/>
</g>
<defs>
<clipPath id="clip0_38186_478">
<rect width="20.57" height="19.36" fill="white" transform="translate(1.91504 2.31982)"/>
</clipPath>
</defs>
</svg>
